PathFileType	4	(X/Y/Z)	5_coords_data.trc
DataRate	CameraRate	NumFrames	NumMarkers	Units	OrigDataRate	OrigDataStartFrame	OrigNumFrames
30.0	30.0	7	21	m	30.0	39	57
Frame#	Time	THUMB_TIP	THUMB_IP	THUMB_MCP	THUMB_CMC	INDEX_TIP	INDEX_DIP	INDEX_PIP	INDEX_MCP	MIDDLE_TIP	MIDDLE_DIP	MIDDLE_PIP	MIDDLE_MCP	RING_TIP	RING_DIP	RING_PIP	RING_MCP	PINKY_TIP	PINKY_DIP	PINKY_PIP	PINKY_MCP	WRIST
X1	Y1	Z1	X2	Y2	Z2	X3	Y3	Z3	X4	Y4	Z4	X5	Y5	Z5	X6	Y6	Z6	X7	Y7	Z7	X8	Y8	Z8	X9	Y9	Z9	X10	Y10	Z10	X11	Y11	Z11	X12	Y12	Z12	X13	Y13	Z13	X14	Y14	Z14	X15	Y15	Z15	X16	Y16	Z16	X17	Y17	Z17	X18	Y18	Z18	X19	Y19	Z19	X20	Y20	Z20	X21	Y21	Z21
37	1.2666666666666608	0.4661953702061551	-0.04466609120468901	-0.1722583416842594	0.4727710928493045	-0.0405832951247056	-0.15062293903282614	0.46373820571621716	-0.02928206959224544	-0.12306374362538773	0.4704491981989768	-0.028062199020779555	-0.07898013560965002	0.5715635181821496	0.025456748976214527	-0.17161830361732067	0.5575636666737033	0.022771037077111478	-0.16044730951041722	0.5385546197719029	0.018681686866236724	-0.14451171464427015	0.5101424371328062	0.004746856867097082	-0.11601251317163773	0.5997463630121975	0.04220565630057127	-0.1314131261587168	0.5833506892422652	0.0366145238375325	-0.12612908230852926	0.5573126963461028	0.02813082731278005	-0.11615615048206507	0.5205864696348126	0.009573800937752952	-0.09875014678599922	0.6052797017904995	0.038160383191709335	-0.09979661550974459	0.5894619890878824	0.030444709843420514	-0.09588914194745723	0.5667494746787625	0.021976878479149087	-0.09017796867029422	0.5307788362682918	0.0052603918755066426	-0.08234259490936717	0.6027849234773284	0.018095375697105065	-0.05847075085849643	0.5867167344375861	0.01241577766432389	-0.06006933372126408	0.5666372059669257	0.006607231326783758	-0.06204046153056211	0.5325004448710282	-0.004499368688989813	-0.06553451776526117	0.4622830810018609	-0.023011742144276925	-0.051989820119430985
38	1.299999999999994	0.46846489243843115	-0.04310098289515607	-0.17253496521769887	0.4743021711675188	-0.03940548578835412	-0.15061991381067366	0.4640818076128226	-0.02891769255818566	-0.12315411030939107	0.47039339906165223	-0.028025994170707613	-0.07900370048831656	0.5729362546408753	0.026027581361723562	-0.1694407919626839	0.5585407504875382	0.023716044924326884	-0.15869713060028773	0.5389590512625084	0.01994454665936185	-0.14338887500737857	0.5097354944121594	0.005506253091082658	-0.1159816588435539	0.5996406311127797	0.04261844624944189	-0.13091671647793346	0.5831430391794153	0.03733625865853418	-0.12563202588579353	0.5569614262961153	0.02925365211097053	-0.11570206273247313	0.5202426457568987	0.010419602525455818	-0.09858021549208415	0.605771753214021	0.03659251527203633	-0.10042760659599158	0.5895442496806496	0.030006434687793626	-0.0961507302110253	0.5664741515735868	0.022847807785797203	-0.09009229698051782	0.5303492643792026	0.006556821262742707	-0.08207250164031869	0.6031360067292504	0.017863917968630516	-0.059894870889546425	0.586804394539495	0.012845129598563987	-0.06093900046958586	0.5665208391083554	0.007609183273983966	-0.062344085576620106	0.5322372331325994	-0.0032454114600733996	-0.06511817740251247	0.462283081001861	-0.023011742144276925	-0.051989820119430985
39	1.3333333333333275	0.471154783575513	-0.04098805689532037	-0.17277816604890206	0.4760998335840727	-0.03782588261063491	-0.15056224531159934	0.46450189011312704	-0.02840971020305305	-0.12325577347001122	0.47033143515748477	-0.027971291389874087	-0.0790323159670066	0.5741884390902665	0.026689794698100178	-0.1670770354702596	0.5593924899111055	0.024772967033066084	-0.15681030962458503	0.5392245915972291	0.021346462122117993	-0.14219782268031744	0.5091504232834971	0.006418593450760457	-0.11599974582021147	0.5994882825826032	0.042728013907342044	-0.1306107039056887	0.5828722268542748	0.0378621272214843	-0.1252975279446019	0.5565235601591391	0.03033832259231861	-0.11537030893368065	0.5197543753536523	0.011405213380608625	-0.09846728123692074	0.6060529548281745	0.03469538083471624	-0.10134090576698183	0.5894613592637823	0.02942886065730932	-0.09665233222606218	0.5660917181508209	0.02373605937866219	-0.09020005612741168	0.5297864237371674	0.0080058706201519	-0.08188094600916093	0.6033431851689204	0.01769415459042456	-0.0618734745719452	0.5867777640945281	0.013398362344606007	-0.062238157460005133	0.5663110275305453	0.008770542154314387	-0.06295089423249481	0.531888815752861	-0.0018431615713873084	-0.06477957697022735	0.4622830810018608	-0.023011742144276925	-0.051989820119430985
40	1.3666666666666607	0.474303715183255	-0.03814659853363289	-0.17289423062469397	0.47821984762389635	-0.03570909565839664	-0.1503837333747314	0.46501909597838365	-0.027706318819453735	-0.12335567908183837	0.47027237626501217	-0.02792405770020845	-0.0790584372262789	0.575326312778609	0.02738727983172784	-0.16455945490364968	0.5601373496044996	0.02582721493256057	-0.15481976316284313	0.5393870006986968	0.022724245409503574	-0.1409704154010738	0.508423240953068	0.007402621212118543	-0.11606801575025506	0.5992649826268138	0.042584960763445756	-0.13050421738487536	0.5825337088457698	0.038181861286119334	-0.12514910836110016	0.5560196276375854	0.031297687201508495	-0.11519816896531573	0.5191392762250193	0.012461441153348685	-0.09842964382149874	0.6059874365112737	0.032830298010410486	-0.10241552945258614	0.5891466131202938	0.028900921160986304	-0.09732174254213913	0.5655788826964884	0.024653846436642812	-0.0904876794785819	0.5290971792765323	0.009551684833841168	-0.0817853312609316	0.603283563354367	0.017857970977627535	-0.06425640195148363	0.5865596870656581	0.014229731784853095	-0.0638718993637469	0.5659674025327599	0.010135085486211448	-0.06381100268749454	0.5314596973305182	-0.0003339926791382508	-0.06451820495204719	0.4622830810018608	-0.023011742144276925	-0.051989820119430985
41	1.3999999999999937	0.4779289662579954	-0.034492733409212994	-0.1727629047366048	0.4806655831663008	-0.03303537838112558	-0.14999479009750294	0.46568715214800016	-0.026785073633527334	-0.12343541708547266	0.47024560280595995	-0.027880070491262732	-0.07907426843622672	0.5763462475521777	0.02802233475077065	-0.16198340091415575	0.5607888841925004	0.026753734867362322	-0.15279867992597157	0.5394868687142124	0.02395056375577398	-0.1397458564275122	0.5076172507619101	0.008406392147893071	-0.11615894746090427	0.5990024813729341	0.0422535336678751	-0.1305202911829424	0.5821708840706086	0.03829379930785248	-0.12513347059465446	0.5555050860128391	0.03206642414324812	-0.11515526622204648	0.5184466500101521	0.013534373873905325	-0.0984405016455018	0.6055897305803536	0.03130063199309874	-0.10349143321575402	0.5886236844790549	0.02857518097865186	-0.09803935136966463	0.564964067215952	0.025593816534977387	-0.0908620290265143	0.5283364073922805	0.011097430800683816	-0.08175213492811892	0.6029257463571692	0.018476384012986347	-0.06684267047017611	0.5861314436265903	0.015374648362148746	-0.06568914034660234	0.5654835594815646	0.011669067299756253	-0.06482567736324252	0.5309723347632334	0.0011995020206875262	-0.06432866397492423	0.4622830810018609	-0.023011742144276925	-0.051989820119430985
42	1.4333333333333271	0.48191566656739226	-0.03003492480949088	-0.1722596100994139	0.48330482315426826	-0.029800735665115874	-0.14932458449616254	0.4664767524034723	-0.025626697759576156	-0.12347475969270734	0.4702515772902136	-0.027831062464747203	-0.0790812751108339	0.5772112729995316	0.02857327300973267	-0.15947387547727504	0.56132466486217	0.02751678128455326	-0.15084256577801475	0.5395296795711563	0.024971292084506547	-0.13857435751857666	0.5067717565728725	0.009399948232466038	-0.11625647622397266	0.5987266794471231	0.0417708568378482	-0.1306207683799847	0.5818130882315159	0.03820357763148263	-0.12521660782952332	0.5550140173095697	0.03260999297560019	-0.11522005050122411	0.5177255094994322	0.0145633279871763	-0.0984858642620038	0.6049825980319441	0.03012494872865823	-0.10449982733594101	0.5879824702744345	0.028399227904680413	-0.09875373789476062	0.5643009245942641	0.02646814058194069	-0.09129483214726987	0.5275490881713712	0.012560651103742493	-0.08177616154898035	0.6023360050674513	0.019419226440340887	-0.06952382346423241	0.5855458575295521	0.016685595626688365	-0.06762166463011149	0.5649050324686334	0.013216926959038755	-0.0659673679582233	0.5304645936353118	0.002649914167914824	-0.06421298355323679	0.462283081001861	-0.023011742144276925	-0.051989820119430985
43	1.4666666666666603	0.48605301642831344	-0.024981639463883543	-0.17127392018491075	0.4859454986226581	-0.02614051503694148	-0.14832516319618394	0.4673242299204444	-0.02426452628798781	-0.12345451748414503	0.4702789740843656	-0.027775661148516817	-0.07908300163312916	0.5778930407136479	0.02900319641531135	-0.1571759830208512	0.5617276527793211	0.028086503514042294	-0.1490618036379752	0.5395171957943657	0.025746547121104246	-0.1375192719573347	0.5059233878056054	0.010352034726452852	-0.1163508722316767	0.5984557166313299	0.04116104904717366	-0.13079000571193306	0.5814774403827313	0.0379247478189676	-0.1253803393648664	0.554567590349042	0.0329169781106311	-0.11537075577149856	0.5170110661039327	0.015514465640987463	-0.09855386047627764	0.604288389111806	0.02933218246857383	-0.10540783158970321	0.5873061741434369	0.028350969406679694	-0.09943777332405215	0.5636437165328803	0.027219114096177388	-0.09175747499750898	0.5267935602845951	0.013859132074599434	-0.08184295539946021	0.6015890419239062	0.020574769937932613	-0.07217663553134954	0.5848597626062958	0.018039654566784247	-0.0695873492265277	0.5642768721760328	0.014667202518323763	-0.06718251914591367	0.5299760946246647	0.003930154798842622	-0.0641732141362576	0.4622830810018609	-0.023011742144276925	-0.051989820119430985
